<svg width="22" height="22" viewBox="0 0 22 22" fill="none" xmlns="http://www.w3.org/2000/svg">
<g clip-path="url(#clip0_146_47)">
<path d="M11 0.6875V4.125H4.125V11H0.6875C0.6875 16.7063 5.29375 21.3125 11 21.3125C16.7063 21.3125 21.3125 16.7063 21.3125 11C21.3125 5.29375 16.7063 0.6875 11 0.6875Z" fill="#2A5F9E"/>
<path d="M11 0.6875C9.38438 0.6875 7.87187 1.06563 6.49687 1.71875V3.78125H3.78125V6.49687H1.71875C1.06563 7.87187 0.6875 9.38438 0.6875 11H4.8125V5.84375L8.9375 11H11V8.42188L8.1125 4.8125H11V0.6875Z" fill="white"/>
<path d="M5.29395 4.8125L10.3127 11H11.0002V9.31563L7.35645 4.8125H5.29395Z" fill="#ED4C5C"/>
<path d="M11 1.71875H6.49687C4.43437 2.71563 2.71563 4.43437 1.71875 6.49687V11H3.78125V3.78125H11V1.71875Z" fill="#ED4C5C"/>
<path d="M2.75 12.2719L3.50625 11.3438L3.26562 12.5469L4.46875 12.5812L3.40312 13.1313L4.125 14.0938L3.05937 13.6125L2.75 14.7812L2.44062 13.6125L1.375 14.0938L2.09687 13.1313L1.03125 12.5812L2.23438 12.5469L1.99375 11.3438L2.75 12.2719ZM17.875 6.94375L18.4937 6.1875L18.2875 7.15L19.25 7.18437L18.3906 7.63125L18.975 8.3875L18.1156 7.975L17.875 8.9375L17.6344 7.975L16.775 8.3875L17.3594 7.63125L16.5 7.18437L17.4625 7.15L17.2563 6.1875L17.875 6.94375ZM17.875 13.8188L18.4937 13.0625L18.2875 14.025L19.25 14.0594L18.3906 14.5063L18.975 15.2625L18.1156 14.85L17.875 15.8125L17.6344 14.85L16.775 15.2625L17.3594 14.5063L16.5 14.0594L17.4625 14.025L17.2563 13.0625L17.875 13.8188ZM14.4375 9.00625L15.0562 8.25L14.85 9.2125L15.8125 9.24687L14.9531 9.69375L15.5375 10.45L14.6781 10.0375L14.4375 11L14.1969 10.0375L13.3375 10.45L13.9219 9.69375L13.0625 9.24687L14.025 9.2125L13.8188 8.25L14.4375 9.00625Z" fill="white"/>
</g>
<defs>
<clipPath id="clip0_146_47">
<rect width="22" height="22" fill="white"/>
</clipPath>
</defs>
</svg>
