<svg width="22" height="22" viewBox="0 0 22 22" fill="none" xmlns="http://www.w3.org/2000/svg">
<g clip-path="url(#clip0_146_44)">
<path d="M16.5 2.26875C14.9188 1.27187 13.0281 0.6875 11 0.6875C8.97187 0.6875 7.08125 1.27187 5.5 2.26875V19.6969C7.08125 20.6938 8.97187 21.2781 11 21.2781C13.0281 21.2781 14.9188 20.6938 16.5 19.6969V2.26875Z" fill="#F9F9F9"/>
<path d="M16.5 2.26855V19.6967C19.3875 17.9092 21.3125 14.6092 21.3125 10.9654C21.3125 7.32168 19.3875 4.09043 16.5 2.26855ZM5.5 2.26855C2.6125 4.09043 0.6875 7.39043 0.6875 10.9998C0.6875 14.6092 2.6125 17.9092 5.5 19.7311V2.26855ZM14.7469 10.8623C14.6094 10.7936 14.575 10.6561 14.6094 10.5873L14.9531 9.3498L13.75 9.59043C13.7156 9.59043 13.5781 9.59043 13.5438 9.3498L13.4406 8.9373L12.6156 9.8998C12.6156 9.8998 12.0656 10.4842 12.2375 9.59043L12.5812 7.6998L11.9281 8.04355C11.8938 8.04355 11.7563 8.07793 11.5844 7.73418L11 6.53105L10.3813 7.66543C10.2094 8.00918 10.0719 7.9748 10.0375 7.9748L9.38437 7.63105L9.72812 9.52168C9.9 10.4154 9.35 9.83105 9.35 9.83105L8.525 8.86855L8.42188 9.28105C8.35312 9.52168 8.25 9.52168 8.21562 9.52168L7.0125 9.28105L7.35625 10.5186C7.35625 10.6217 7.35625 10.7248 7.21875 10.7936L6.875 10.9998C6.875 10.9998 8.25 12.0998 8.69687 12.4779C8.8 12.5467 9.00625 12.7529 8.9375 12.9936L8.76562 13.4748L10.6562 13.1998C10.7594 13.1998 10.9656 13.1998 10.9312 13.5092L10.8281 15.4686H11.1719L11.0688 13.5092C11.0688 13.1998 11.275 13.1998 11.3438 13.1998L13.2344 13.4748L13.0625 12.9936C12.9937 12.7529 13.2 12.5467 13.3031 12.4779C13.75 12.0998 15.125 10.9998 15.125 10.9998L14.7469 10.8623Z" fill="#ED4C5C"/>
</g>
<defs>
<clipPath id="clip0_146_44">
<rect width="22" height="22" fill="white"/>
</clipPath>
</defs>
</svg>
