<svg width="16" height="16" viewBox="0 0 16 16" fill="none" xmlns="http://www.w3.org/2000/svg">
<g clip-path="url(#clip0_146_86)">
<path d="M15.4284 7.99986C15.4284 9.97004 14.6458 11.8595 13.2527 13.2527C11.8595 14.6458 9.97004 15.4284 7.99986 15.4284C6.02968 15.4284 4.14019 14.6458 2.74707 13.2527C1.35394 11.8595 0.571289 9.97004 0.571289 7.99986M15.4284 7.99986C15.4284 6.02968 14.6458 4.14019 13.2527 2.74707C11.8595 1.35394 9.97004 0.571289 7.99986 0.571289C6.02968 0.571289 4.14019 1.35394 2.74707 2.74707C1.35394 4.14019 0.571289 6.02968 0.571289 7.99986M15.4284 7.99986H0.571289" stroke="#A1A1A1" stroke-linecap="round" stroke-linejoin="round"/>
<path d="M10.8569 7.99986C10.7165 10.7164 9.71593 13.318 7.99972 15.4284C6.28352 13.318 5.28292 10.7164 5.14258 7.99986C5.28292 5.2833 6.28352 2.68175 7.99972 0.571289C9.71593 2.68175 10.7165 5.2833 10.8569 7.99986Z" stroke="#A1A1A1" stroke-linecap="round" stroke-linejoin="round"/>
</g>
<defs>
<clipPath id="clip0_146_86">
<rect width="16" height="16" fill="white"/>
</clipPath>
</defs>
</svg>
