<svg width="22" height="22" viewBox="0 0 22 22" fill="none" xmlns="http://www.w3.org/2000/svg">
<g clip-path="url(#clip0_146_2)">
<path d="M10.9311 0.6875C6.4623 0.6875 2.64668 3.575 1.2373 7.5625H20.6936C19.2498 3.575 15.4342 0.6875 10.9311 0.6875Z" fill="#FF9D00"/>
<path d="M10.9311 21.3125C15.4342 21.3125 19.2498 18.4594 20.6592 14.4375H1.2373C2.64668 18.4594 6.4623 21.3125 10.9311 21.3125Z" fill="#83BF4F"/>
<path d="M1.2377 7.5625C0.85957 8.62812 0.65332 9.79688 0.65332 11C0.65332 12.2031 0.85957 13.3719 1.2377 14.4375H20.6939C21.0721 13.3719 21.2783 12.2031 21.2783 11C21.2783 9.79688 21.0721 8.62812 20.6939 7.5625H1.2377Z" fill="white"/>
<path d="M10.9316 13.75C12.4504 13.75 13.6816 12.5188 13.6816 11C13.6816 9.48122 12.4504 8.25 10.9316 8.25C9.41286 8.25 8.18164 9.48122 8.18164 11C8.18164 12.5188 9.41286 13.75 10.9316 13.75Z" fill="#428BC1"/>
<path d="M10.9316 13.4062C12.2606 13.4062 13.3379 12.3289 13.3379 11C13.3379 9.67106 12.2606 8.59375 10.9316 8.59375C9.60271 8.59375 8.52539 9.67106 8.52539 11C8.52539 12.3289 9.60271 13.4062 10.9316 13.4062Z" fill="white"/>
<path d="M10.0381 8.9375C10.133 8.9375 10.21 8.86055 10.21 8.76562C10.21 8.6707 10.133 8.59375 10.0381 8.59375C9.94316 8.59375 9.86621 8.6707 9.86621 8.76562C9.86621 8.86055 9.94316 8.9375 10.0381 8.9375Z" fill="#428BC1"/>
<path d="M9.4873 9.24707C9.58223 9.24707 9.65918 9.17012 9.65918 9.0752C9.65918 8.98027 9.58223 8.90332 9.4873 8.90332C9.39238 8.90332 9.31543 8.98027 9.31543 9.0752C9.31543 9.17012 9.39238 9.24707 9.4873 9.24707Z" fill="#428BC1"/>
<path d="M9.04102 9.69434C9.13594 9.69434 9.21289 9.61738 9.21289 9.52246C9.21289 9.42754 9.13594 9.35059 9.04102 9.35059C8.94609 9.35059 8.86914 9.42754 8.86914 9.52246C8.86914 9.61738 8.94609 9.69434 9.04102 9.69434Z" fill="#428BC1"/>
<path d="M8.73145 10.2441C8.82637 10.2441 8.90332 10.1672 8.90332 10.0723C8.90332 9.97734 8.82637 9.90039 8.73145 9.90039C8.63652 9.90039 8.55957 9.97734 8.55957 10.0723C8.55957 10.1672 8.63652 10.2441 8.73145 10.2441Z" fill="#428BC1"/>
<path d="M8.55957 10.8623C8.65449 10.8623 8.73145 10.7854 8.73145 10.6904C8.73145 10.5955 8.65449 10.5186 8.55957 10.5186C8.46465 10.5186 8.3877 10.5955 8.3877 10.6904C8.3877 10.7854 8.46465 10.8623 8.55957 10.8623Z" fill="#428BC1"/>
<path d="M8.55957 11.4814C8.65449 11.4814 8.73145 11.4045 8.73145 11.3096C8.73145 11.2146 8.65449 11.1377 8.55957 11.1377C8.46465 11.1377 8.3877 11.2146 8.3877 11.3096C8.3877 11.4045 8.46465 11.4814 8.55957 11.4814Z" fill="#428BC1"/>
<path d="M8.73145 12.1006C8.82637 12.1006 8.90332 12.0236 8.90332 11.9287C8.90332 11.8338 8.82637 11.7568 8.73145 11.7568C8.63652 11.7568 8.55957 11.8338 8.55957 11.9287C8.55957 12.0236 8.63652 12.1006 8.73145 12.1006Z" fill="#428BC1"/>
<path d="M9.04102 12.6504C9.13594 12.6504 9.21289 12.5734 9.21289 12.4785C9.21289 12.3836 9.13594 12.3066 9.04102 12.3066C8.94609 12.3066 8.86914 12.3836 8.86914 12.4785C8.86914 12.5734 8.94609 12.6504 9.04102 12.6504Z" fill="#428BC1"/>
<path d="M9.4873 13.0967C9.58223 13.0967 9.65918 13.0197 9.65918 12.9248C9.65918 12.8299 9.58223 12.7529 9.4873 12.7529C9.39238 12.7529 9.31543 12.8299 9.31543 12.9248C9.31543 13.0197 9.39238 13.0967 9.4873 13.0967Z" fill="#428BC1"/>
<path d="M10.0381 13.4062C10.133 13.4062 10.21 13.3293 10.21 13.2344C10.21 13.1395 10.133 13.0625 10.0381 13.0625C9.94316 13.0625 9.86621 13.1395 9.86621 13.2344C9.86621 13.3293 9.94316 13.4062 10.0381 13.4062Z" fill="#428BC1"/>
<path d="M10.6221 13.5439C10.717 13.5439 10.7939 13.467 10.7939 13.3721C10.7939 13.2771 10.717 13.2002 10.6221 13.2002C10.5271 13.2002 10.4502 13.2771 10.4502 13.3721C10.4502 13.467 10.5271 13.5439 10.6221 13.5439Z" fill="#428BC1"/>
<path d="M11.1035 13.4064C11.1035 13.3033 11.1723 13.2346 11.241 13.2002C11.3441 13.2002 11.4129 13.2689 11.4473 13.3377C11.4473 13.4408 11.3785 13.5096 11.3098 13.5439C11.1723 13.5783 11.1035 13.5096 11.1035 13.4064Z" fill="#428BC1"/>
<path d="M11.8594 13.4062C11.9543 13.4062 12.0312 13.3293 12.0312 13.2344C12.0312 13.1395 11.9543 13.0625 11.8594 13.0625C11.7645 13.0625 11.6875 13.1395 11.6875 13.2344C11.6875 13.3293 11.7645 13.4062 11.8594 13.4062Z" fill="#428BC1"/>
<path d="M12.4092 13.0967C12.5041 13.0967 12.5811 13.0197 12.5811 12.9248C12.5811 12.8299 12.5041 12.7529 12.4092 12.7529C12.3143 12.7529 12.2373 12.8299 12.2373 12.9248C12.2373 13.0197 12.3143 13.0967 12.4092 13.0967Z" fill="#428BC1"/>
<path d="M12.8564 12.6504C12.9514 12.6504 13.0283 12.5734 13.0283 12.4785C13.0283 12.3836 12.9514 12.3066 12.8564 12.3066C12.7615 12.3066 12.6846 12.3836 12.6846 12.4785C12.6846 12.5734 12.7615 12.6504 12.8564 12.6504Z" fill="#428BC1"/>
<path d="M13.166 12.1006C13.2609 12.1006 13.3379 12.0236 13.3379 11.9287C13.3379 11.8338 13.2609 11.7568 13.166 11.7568C13.0711 11.7568 12.9941 11.8338 12.9941 11.9287C12.9941 12.0236 13.0711 12.1006 13.166 12.1006Z" fill="#428BC1"/>
<path d="M13.3379 11.4814C13.4328 11.4814 13.5098 11.4045 13.5098 11.3096C13.5098 11.2146 13.4328 11.1377 13.3379 11.1377C13.243 11.1377 13.166 11.2146 13.166 11.3096C13.166 11.4045 13.243 11.4814 13.3379 11.4814Z" fill="#428BC1"/>
<path d="M13.3381 10.8623C13.235 10.8623 13.1662 10.7936 13.1318 10.7248C13.1318 10.6217 13.2006 10.5529 13.2693 10.5186C13.3725 10.5186 13.4412 10.5873 13.4756 10.6561C13.51 10.7592 13.4412 10.8279 13.3381 10.8623Z" fill="#428BC1"/>
<path d="M13.166 10.2441C13.2609 10.2441 13.3379 10.1672 13.3379 10.0723C13.3379 9.97734 13.2609 9.90039 13.166 9.90039C13.0711 9.90039 12.9941 9.97734 12.9941 10.0723C12.9941 10.1672 13.0711 10.2441 13.166 10.2441Z" fill="#428BC1"/>
<path d="M12.8564 9.69434C12.9514 9.69434 13.0283 9.61738 13.0283 9.52246C13.0283 9.42754 12.9514 9.35059 12.8564 9.35059C12.7615 9.35059 12.6846 9.42754 12.6846 9.52246C12.6846 9.61738 12.7615 9.69434 12.8564 9.69434Z" fill="#428BC1"/>
<path d="M12.4092 9.24707C12.5041 9.24707 12.5811 9.17012 12.5811 9.0752C12.5811 8.98027 12.5041 8.90332 12.4092 8.90332C12.3143 8.90332 12.2373 8.98027 12.2373 9.0752C12.2373 9.17012 12.3143 9.24707 12.4092 9.24707Z" fill="#428BC1"/>
<path d="M12.0314 8.83453C11.9971 8.93765 11.8939 8.97203 11.7908 8.93765C11.6877 8.90328 11.6533 8.80015 11.6877 8.69703C11.7221 8.5939 11.8252 8.55953 11.9283 8.5939C12.0314 8.66265 12.0658 8.76578 12.0314 8.83453ZM11.4127 8.62828C11.4127 8.7314 11.3096 8.80015 11.2064 8.76578C11.1033 8.76578 11.0346 8.66265 11.0689 8.55953C11.0689 8.4564 11.1721 8.38765 11.2752 8.42203C11.3783 8.4564 11.4471 8.55953 11.4127 8.62828ZM10.7939 8.5939C10.7939 8.69703 10.7252 8.76578 10.6564 8.80015C10.5533 8.80015 10.4846 8.7314 10.4502 8.66265C10.4502 8.55953 10.5189 8.49078 10.5877 8.4564C10.6908 8.42203 10.7939 8.49078 10.7939 8.5939Z" fill="#428BC1"/>
<path d="M10.9316 11.5156C11.2164 11.5156 11.4473 11.2848 11.4473 11C11.4473 10.7152 11.2164 10.4844 10.9316 10.4844C10.6469 10.4844 10.416 10.7152 10.416 11C10.416 11.2848 10.6469 11.5156 10.9316 11.5156Z" fill="#428BC1"/>
<path d="M10.9312 8.59375L10.8625 10.0719L10.9312 11L11.0344 10.0719L10.9312 8.59375ZM10.3125 8.6625L10.6219 10.1406L10.9312 11L10.7937 10.0719L10.3125 8.6625Z" fill="#428BC1"/>
<path d="M9.72832 8.90332L10.4158 10.2439L10.9314 11.0002L10.5533 10.1408L9.72832 8.90332ZM9.24707 9.28145L10.2439 10.4158L10.9314 11.0002L10.3471 10.2783L9.24707 9.28145Z" fill="#428BC1"/>
<path d="M8.86914 9.79688L10.1066 10.6219L10.9316 11L10.1754 10.45L8.86914 9.79688Z" fill="#428BC1"/>
<path d="M8.62852 10.3818L10.0379 10.8287L10.9316 11.0006L10.0723 10.6912L8.62852 10.3818ZM8.52539 11.0006L10.0379 11.0693L10.9316 11.0006L10.0379 10.9318L8.52539 11.0006Z" fill="#428BC1"/>
<path d="M8.62793 11.6187L10.0717 11.3094L10.9311 11L10.0373 11.1719L8.62793 11.6187ZM8.86855 12.2031L10.1748 11.55L10.9311 11L10.1061 11.3781L8.86855 12.2031Z" fill="#428BC1"/>
<path d="M9.24707 12.6844L10.3471 11.7219L10.9314 11L10.2439 11.5844L9.24707 12.6844ZM9.72832 13.0969L10.5533 11.825L10.9314 11L10.4158 11.7563L9.72832 13.0969Z" fill="#428BC1"/>
<path d="M10.3125 13.3375L10.7937 11.9281L10.9312 11L10.6219 11.8594L10.3125 13.3375ZM10.9312 13.4062L11.0344 11.9281L10.9312 11L10.8625 11.9281L10.9312 13.4062ZM11.55 13.3375L11.275 11.8594L10.9312 11L11.1031 11.9281L11.55 13.3375Z" fill="#428BC1"/>
<path d="M12.1348 13.0969L11.4816 11.7563L10.9316 11L11.3441 11.8594L12.1348 13.0969ZM12.6504 12.6844L11.6535 11.5844L10.9316 11L11.5504 11.7219L12.6504 12.6844Z" fill="#428BC1"/>
<path d="M13.0285 12.2037L11.791 11.3787L10.9316 11.0006L11.6879 11.5506L13.0285 12.2037ZM13.2691 11.6193L11.8598 11.1725L10.9316 11.0006L11.8254 11.31L13.2691 11.6193ZM13.3379 11.0006L11.8598 10.8975L10.9316 11.0006L11.8598 11.0693L13.3379 11.0006ZM13.2691 10.3818L11.8254 10.6912L10.9316 11.0006L11.8598 10.8287L13.2691 10.3818Z" fill="#428BC1"/>
<path d="M13.0285 9.79668L11.6879 10.4498L10.9316 10.9998L11.791 10.6217L13.0285 9.79668ZM12.6504 9.31543L11.5504 10.2779L10.9316 10.9998L11.6535 10.4154L12.6504 9.31543Z" fill="#428BC1"/>
<path d="M12.1348 8.90332L11.3441 10.1752L10.9316 11.0002L11.4816 10.2439L12.1348 8.90332Z" fill="#428BC1"/>
<path d="M11.5848 8.66309L11.1035 10.0725L10.9316 11.0006L11.2754 10.1412L11.5848 8.66309Z" fill="#428BC1"/>
</g>
<defs>
<clipPath id="clip0_146_2">
<rect width="22" height="22" fill="white"/>
</clipPath>
</defs>
</svg>
