<svg width="24" height="24" viewBox="0 0 24 24" fill="none" xmlns="http://www.w3.org/2000/svg">
<path d="M11.9996 7.89965C11.1887 7.89965 10.3961 8.14011 9.72181 8.59062C9.04757 9.04114 8.52206 9.68147 8.21174 10.4306C7.90142 11.1798 7.82023 12.0042 7.97843 12.7995C8.13663 13.5948 8.52712 14.3254 9.10051 14.8988C9.67391 15.4722 10.4045 15.8627 11.1998 16.0209C11.9951 16.1791 12.8195 16.0979 13.5687 15.7876C14.3178 15.4772 14.9582 14.9517 15.4087 14.2775C15.8592 13.6032 16.0996 12.8106 16.0996 11.9996C16.101 11.4609 15.9958 10.9271 15.7902 10.4291C15.5847 9.93106 15.2827 9.47855 14.9017 9.09757C14.5207 8.71659 14.0682 8.41463 13.5702 8.20906C13.0722 8.00348 12.5384 7.89833 11.9996 7.89965ZM11.9996 14.6696C11.4716 14.6696 10.9554 14.5131 10.5163 14.2197C10.0772 13.9263 9.73498 13.5093 9.53289 13.0214C9.3308 12.5335 9.27793 11.9967 9.38095 11.4788C9.48397 10.9608 9.73827 10.4851 10.1117 10.1117C10.4851 9.73827 10.9608 9.48397 11.4788 9.38095C11.9967 9.27793 12.5335 9.3308 13.0214 9.53289C13.5093 9.73498 13.9263 10.0772 14.2197 10.5163C14.5131 10.9554 14.6696 11.4716 14.6696 11.9996C14.6696 12.7078 14.3883 13.3869 13.8876 13.8876C13.3869 14.3883 12.7078 14.6696 11.9996 14.6696ZM17.2296 7.72965C17.2296 7.92743 17.171 8.12077 17.0611 8.28522C16.9512 8.44967 16.7951 8.57784 16.6123 8.65353C16.4296 8.72922 16.2285 8.74902 16.0346 8.71043C15.8406 8.67185 15.6624 8.57661 15.5225 8.43676C15.3827 8.2969 15.2874 8.11872 15.2489 7.92474C15.2103 7.73076 15.2301 7.52969 15.3058 7.34697C15.3815 7.16424 15.5096 7.00806 15.6741 6.89818C15.8385 6.7883 16.0319 6.72965 16.2296 6.72965C16.4949 6.72965 16.7492 6.83501 16.9368 7.02254C17.1243 7.21008 17.2296 7.46443 17.2296 7.72965ZM19.9396 8.72965C19.9698 7.48628 19.506 6.28165 18.6496 5.37965C18.2054 4.95024 17.6809 4.61262 17.1061 4.38612C16.5312 4.15962 15.9174 4.04868 15.2996 4.05965C13.9996 3.99965 9.99965 3.99965 8.69965 4.05965C7.45685 4.03274 6.25342 4.49615 5.34965 5.34965C4.49334 6.25165 4.02947 7.45628 4.05965 8.69965C3.99965 9.99965 3.99965 13.9996 4.05965 15.2996C4.02947 16.543 4.49334 17.7476 5.34965 18.6496C6.25342 19.5031 7.45685 19.9666 8.69965 19.9396C10.0196 20.0196 13.9796 20.0196 15.2996 19.9396C16.543 19.9698 17.7476 19.506 18.6496 18.6496C19.506 17.7476 19.9698 16.543 19.9396 15.2996C19.9996 13.9996 19.9996 9.99965 19.9396 8.69965V8.72965ZM18.2396 16.7296C18.1039 17.0736 17.8989 17.386 17.6374 17.6474C17.376 17.9089 17.0636 18.1139 16.7196 18.2496C15.1672 18.5635 13.5802 18.6711 11.9996 18.5696C10.4224 18.6702 8.83879 18.5626 7.28965 18.2496C6.94571 18.1139 6.63332 17.9089 6.37186 17.6474C6.11039 17.386 5.90542 17.0736 5.76965 16.7296C5.34965 15.6696 5.43965 13.1696 5.43965 12.0096C5.43965 10.8496 5.34965 8.33965 5.76965 7.28965C5.90159 6.94232 6.1051 6.62661 6.36696 6.36302C6.62882 6.09944 6.94319 5.89387 7.28965 5.75965C8.83879 5.44667 10.4224 5.33908 11.9996 5.43965C13.5802 5.3382 15.1672 5.44579 16.7196 5.75965C17.0636 5.89542 17.376 6.10039 17.6374 6.36186C17.8989 6.62333 18.1039 6.93571 18.2396 7.27965C18.6596 8.33965 18.5596 10.8396 18.5596 11.9996C18.5596 13.1596 18.6596 15.6696 18.2396 16.7196V16.7296Z" fill="#A1A1A1"/>
</svg>
