<svg width="20" height="20" viewBox="0 0 20 20" fill="none" xmlns="http://www.w3.org/2000/svg">
<path d="M4.16699 4.16699H15.0003C15.6634 4.16699 16.2993 4.43038 16.7681 4.89923C17.2369 5.36807 17.5003 6.00395 17.5003 6.66699V14.167C17.5003 14.83 17.2369 15.4659 16.7681 15.9348C16.2993 16.4036 15.6634 16.667 15.0003 16.667H4.16699C3.50395 16.667 2.86807 16.4036 2.39923 15.9348C1.93038 15.4659 1.66699 14.83 1.66699 14.167V6.66699C1.66699 6.00395 1.93038 5.36807 2.39923 4.89923C2.86807 4.43038 3.50395 4.16699 4.16699 4.16699ZM4.16699 5.00033C3.75033 5.00033 3.38366 5.14199 3.10033 5.39199L9.58366 9.58366L16.067 5.39199C15.7837 5.14199 15.417 5.00033 15.0003 5.00033H4.16699ZM9.58366 10.592L2.60866 6.06699C2.54199 6.25033 2.50033 6.45866 2.50033 6.66699V14.167C2.50033 14.609 2.67592 15.0329 2.98848 15.3455C3.30104 15.6581 3.72496 15.8337 4.16699 15.8337H15.0003C15.4424 15.8337 15.8663 15.6581 16.1788 15.3455C16.4914 15.0329 16.667 14.609 16.667 14.167V6.66699C16.667 6.45866 16.6253 6.25033 16.5587 6.06699L9.58366 10.592Z" fill="#A1A1A1"/>
</svg>
